<?xml version="1.0" encoding="utf-8"?>
<!-- Generator: Adobe Illustrator 19.1.0, SVG Export Plug-In . SVG Version: 6.00 Build 0)  -->
<svg version="1.1" id="Layer_1" xmlns="http://www.w3.org/2000/svg" xmlns:xlink="http://www.w3.org/1999/xlink" x="0px" y="0px"
	 viewBox="0 0 274 280" style="enable-background:new 0 0 274 280;" xml:space="preserve">
<g>
	<path d="M192.3,90.6c2.4,0,4.7,0.5,6.9,1.4s4,2.2,5.6,3.8s2.8,3.5,3.8,5.6s1.4,4.4,1.4,6.9v61.8c0,2.4-0.5,4.7-1.4,6.9
		s-2.2,4-3.8,5.6s-3.5,2.9-5.6,3.8s-4.4,1.4-6.9,1.4h-3.1v-6.1h3.1c1.6,0,3.1-0.3,4.5-0.9s2.6-1.5,3.7-2.5s1.8-2.3,2.5-3.7
		s0.9-2.9,0.9-4.5v-61.8c0-1.6-0.3-3.1-0.9-4.5s-1.4-2.6-2.5-3.7s-2.3-1.9-3.7-2.5s-2.9-0.9-4.5-0.9H77.7c-1.6,0-3.1,0.3-4.5,0.9
		s-2.6,1.4-3.7,2.5s-1.9,2.3-2.5,3.7s-0.9,2.9-0.9,4.5v61.8c0,1.6,0.3,3.1,0.9,4.5s1.4,2.6,2.5,3.7s2.2,1.9,3.7,2.5s2.9,0.9,4.5,0.9
		h3.1v6.1h-3.1c-2.4,0-4.7-0.5-6.9-1.4s-4-2.2-5.6-3.8s-2.8-3.5-3.8-5.6s-1.4-4.4-1.4-6.9v-61.8c0-2.4,0.5-4.7,1.4-6.9
		s2.2-4,3.8-5.6s3.5-2.8,5.6-3.8s4.4-1.4,6.9-1.4H192.3z M97.5,166.2c1.1,0,2.2,0.2,3.2,0.7s1.9,1,2.6,1.8s1.3,1.6,1.8,2.6
		s0.7,2.1,0.7,3.2v19c0,1.1-0.2,2.2-0.7,3.2s-1,1.9-1.8,2.6s-1.6,1.3-2.6,1.8s-2.1,0.7-3.2,0.7s-2.2-0.2-3.2-0.7s-1.9-1-2.6-1.8
		s-1.3-1.6-1.8-2.6s-0.7-2.1-0.7-3.2v-19c0-1.1,0.2-2.2,0.7-3.2s1-1.9,1.8-2.6s1.6-1.3,2.6-1.8S96.4,166.2,97.5,166.2z M122.5,136.6
		c1.1,0,2.2,0.2,3.2,0.7s1.9,1,2.6,1.8s1.3,1.6,1.8,2.6s0.7,2.1,0.7,3.2v48.6c0,1.1-0.2,2.2-0.7,3.2s-1,1.9-1.8,2.6
		s-1.6,1.3-2.6,1.8s-2.1,0.7-3.2,0.7s-2.2-0.2-3.2-0.7s-1.9-1-2.6-1.8s-1.3-1.6-1.8-2.6s-0.7-2.1-0.7-3.2v-48.6
		c0-1.1,0.2-2.2,0.6-3.2s1-1.9,1.7-2.6s1.6-1.4,2.6-1.8S121.3,136.6,122.5,136.6z M147.5,149.1c1.1,0,2.2,0.2,3.2,0.7s1.9,1,2.6,1.8
		s1.3,1.6,1.8,2.6s0.7,2.1,0.7,3.2v36.1c0,1.1-0.2,2.2-0.7,3.2s-1,1.9-1.8,2.6s-1.6,1.3-2.6,1.8s-2.1,0.7-3.2,0.7s-2.2-0.2-3.2-0.7
		s-1.9-1-2.6-1.8s-1.3-1.6-1.8-2.6s-0.7-2.1-0.7-3.2v-36.1c0-1.1,0.2-2.2,0.7-3.2s1-1.9,1.8-2.6s1.6-1.3,2.6-1.8
		S146.4,149.1,147.5,149.1z M172.5,116.4c1.1,0,2.2,0.2,3.2,0.7s1.9,1,2.6,1.8s1.3,1.6,1.8,2.6s0.7,2.1,0.7,3.2v68.8
		c0,1.1-0.2,2.2-0.7,3.2s-1,1.9-1.8,2.6s-1.6,1.3-2.6,1.8s-2.1,0.7-3.2,0.7s-2.2-0.2-3.2-0.7s-1.9-1-2.6-1.8s-1.3-1.6-1.8-2.6
		s-0.7-2.1-0.7-3.2v-68.8c0-1.1,0.2-2.2,0.7-3.2s1-1.9,1.8-2.6s1.6-1.3,2.6-1.8S171.4,116.4,172.5,116.4z"/>
</g>
<g>
</g>
<g>
</g>
<g>
</g>
<g>
</g>
<g>
</g>
<g>
</g>
</svg>
